<?xml version="1.0" standalone="no"?>
<!DOCTYPE svg PUBLIC "-//W3C//DTD SVG 20010904//EN"
 "http://www.w3.org/TR/2001/REC-SVG-20010904/DTD/svg10.dtd">
<svg version="1.0" xmlns="http://www.w3.org/2000/svg"
 width="1024.000000pt" height="1024.000000pt" viewBox="0 0 1024.000000 1024.000000"
 preserveAspectRatio="xMidYMid meet">

<g transform="translate(0.000000,1024.000000) scale(0.100000,-0.100000)"
fill="#000000" stroke="none">
<path d="M3614 8406 c-46 -20 -112 -83 -137 -130 -16 -31 -21 -59 -21 -111 0
-79 20 -129 73 -179 l31 -30 0 -587 0 -587 -83 -3 c-98 -5 -139 -26 -187 -97
-39 -59 -43 -102 -38 -434 5 -308 8 -331 66 -391 51 -54 91 -67 205 -67 l103
0 13 -37 c26 -73 103 -219 167 -315 117 -176 292 -338 503 -464 44 -27 81 -52
81 -56 0 -5 -55 -8 -122 -8 -160 0 -243 -13 -323 -49 -68 -31 -145 -96 -190
-160 -19 -28 -36 -41 -60 -45 -19 -4 -75 -27 -125 -52 -146 -73 -260 -194
-331 -349 -28 -63 -69 -206 -69 -244 0 -15 -20 -34 -68 -65 -235 -151 -465
-387 -636 -656 -75 -118 -180 -343 -229 -490 -42 -124 -87 -312 -87 -358 0
-12 -11 -24 -29 -32 -123 -50 -127 -229 -7 -293 l41 -22 2895 0 c3208 0 2937
-6 2991 68 57 78 32 190 -51 234 l-43 23 -509 0 -509 0 3 152 3 153 89 48
c385 208 624 453 880 899 86 151 131 259 152 358 44 221 -75 445 -314 586
-174 102 -345 122 -486 56 -131 -61 -183 -119 -300 -335 l-69 -126 -38 77
c-88 178 -227 297 -422 358 -44 14 -62 25 -78 50 -29 47 -124 131 -180 160
-84 42 -152 54 -306 54 -79 0 -143 3 -143 8 0 4 37 27 82 52 283 156 547 464
663 773 l18 47 99 0 c116 0 155 15 211 81 54 63 59 101 55 449 -3 275 -5 308
-22 340 -49 93 -90 114 -234 120 l-112 5 -43 96 c-124 274 -346 523 -604 675
-266 158 -628 244 -893 214 -399 -45 -710 -187 -957 -437 l-103 -104 0 360 0
361 35 46 c43 56 70 142 61 196 -14 84 -82 173 -161 209 -48 22 -155 25 -201
5z m1593 -967 c225 -30 431 -119 610 -262 218 -173 375 -451 419 -739 42 -278
-39 -588 -221 -843 -72 -101 -129 -160 -230 -240 -187 -146 -383 -227 -620
-255 -290 -35 -628 71 -865 269 -241 203 -386 464 -426 766 -73 552 261 1073
806 1255 159 54 358 72 527 49z m-74 -2653 l117 7 0 -148 c0 -134 -2 -151 -22
-187 -25 -44 -83 -83 -140 -93 -94 -17 -204 46 -227 130 -10 38 -16 287 -6
296 2 3 39 1 82 -3 43 -4 131 -5 196 -2z m-613 -255 c0 -79 31 -176 81 -249
210 -316 709 -307 916 16 46 72 64 123 71 212 l7 75 205 0 c239 0 256 -5 300
-90 l25 -49 3 -1013 3 -1013 -1076 0 -1075 0 2 1023 c3 1120 -1 1048 61 1105
38 36 68 40 280 41 l197 1 0 -59z m3039 -192 c85 -48 137 -94 161 -145 21 -42
22 -51 11 -98 -12 -53 -121 -257 -230 -431 -150 -239 -356 -445 -538 -539
l-33 -17 0 304 0 303 61 59 c96 95 155 182 265 395 32 63 77 133 100 157 38
40 44 43 94 43 41 0 66 -7 109 -31z m-1023 -151 c13 -20 32 -64 44 -97 19 -59
20 -82 20 -866 l0 -805 -75 0 -75 0 0 932 0 932 31 -30 c17 -16 42 -46 55 -66z
m-2886 -843 l0 -925 -75 0 -75 0 0 788 c0 839 0 834 50 932 21 42 86 130 96
130 2 0 4 -416 4 -925z m-480 -350 l0 -575 -346 0 c-324 0 -345 1 -340 18 2 9
7 33 11 52 45 247 209 588 388 809 73 91 255 271 274 271 11 0 13 -108 13
-575z"/>
<path d="M4455 6585 c-69 -37 -114 -107 -115 -176 0 -54 42 -130 92 -162 39
-26 50 -28 114 -25 59 3 77 8 106 30 107 81 101 242 -10 319 -45 30 -143 38
-187 14z"/>
<path d="M5482 6579 c-66 -33 -97 -87 -97 -169 0 -57 4 -73 28 -107 39 -56 91
-83 161 -83 63 0 98 14 138 57 57 60 72 137 39 208 -49 105 -164 145 -269 94z"/>
<path d="M4682 5850 c-33 -15 -47 -29 -62 -62 -25 -55 -25 -82 1 -135 66 -137
376 -211 621 -148 159 41 258 122 258 211 0 52 -19 94 -55 122 -46 36 -79 37
-145 3 -154 -80 -325 -82 -484 -6 -40 19 -77 35 -82 35 -5 0 -28 -9 -52 -20z"/>
<path d="M4946 3805 c-39 -30 -56 -68 -56 -128 0 -65 17 -105 56 -136 37 -29
164 -30 210 -2 58 35 83 144 49 211 -28 54 -64 70 -157 70 -57 -1 -89 -5 -102
-15z"/>
<path d="M4935 3299 c-45 -40 -61 -95 -45 -156 14 -57 36 -90 71 -109 37 -19
142 -18 183 1 90 43 103 209 21 273 -23 19 -41 22 -111 22 -79 0 -85 -2 -119
-31z"/>
<path d="M4983 2833 c-61 -13 -111 -105 -97 -181 16 -90 68 -132 166 -132 121
0 172 53 166 173 -3 62 -6 70 -41 104 -34 35 -41 37 -104 39 -38 1 -78 0 -90
-3z"/>
</g>
</svg>
